<svg width="30" height="30" viewBox="0 0 30 30" fill="none" xmlns="http://www.w3.org/2000/svg">
<path d="M15.0008 0C10.9272 0 10.4159 0.0178128 8.81598 0.0906253C7.21916 0.16375 6.12919 0.416563 5.17547 0.7875C4.18894 1.17063 3.35209 1.68313 2.51836 2.51719C1.68401 3.35094 1.17153 4.18781 0.787163 5.17406C0.4153 6.12812 0.162182 7.21844 0.0903096 8.81469C0.0187493 10.4147 0 10.9262 0 15C0 19.0737 0.0181247 19.5834 0.0906225 21.1834C0.164058 22.7803 0.416863 23.8703 0.787476 24.8241C1.1709 25.8106 1.68339 26.6475 2.51742 27.4813C3.35084 28.3156 4.18769 28.8294 5.17359 29.2125C6.12794 29.5834 7.21822 29.8363 8.81473 29.9094C10.4147 29.9822 10.9256 30 14.9989 30C19.0729 30 19.5825 29.9822 21.1825 29.9094C22.7793 29.8363 23.8705 29.5834 24.8249 29.2125C25.8111 28.8294 26.6467 28.3156 27.4801 27.4813C28.3145 26.6475 28.8269 25.8106 29.2113 24.8244C29.58 23.8703 29.8332 22.78 29.9082 21.1838C29.98 19.5837 29.9988 19.0737 29.9988 15C29.9988 10.9262 29.98 10.415 29.9082 8.815C29.8332 7.21812 29.58 6.12812 29.2113 5.17437C28.8269 4.18781 28.3145 3.35094 27.4801 2.51719C26.6458 1.68281 25.8114 1.17031 24.8239 0.7875C23.8677 0.416563 22.7771 0.16375 21.1803 0.0906253C19.5803 0.0178128 19.071 0 14.9961 0H15.0008ZM13.6552 2.70312C14.0546 2.7025 14.5002 2.70312 15.0008 2.70312C19.0057 2.70312 19.4803 2.7175 21.0619 2.78938C22.5243 2.85625 23.318 3.10063 23.8468 3.30594C24.5468 3.57781 25.0458 3.90281 25.5705 4.42781C26.0955 4.95281 26.4204 5.45281 26.6929 6.15281C26.8982 6.68094 27.1429 7.47469 27.2095 8.93719C27.2814 10.5184 27.297 10.9934 27.297 14.9966C27.297 18.9997 27.2814 19.4747 27.2095 21.0559C27.1426 22.5184 26.8982 23.3122 26.6929 23.8403C26.4211 24.5403 26.0955 25.0387 25.5705 25.5634C25.0455 26.0884 24.5471 26.4134 23.8468 26.6853C23.3187 26.8916 22.5243 27.1353 21.0619 27.2022C19.4807 27.2741 19.0057 27.2897 15.0008 27.2897C10.9956 27.2897 10.5209 27.2741 8.93973 27.2022C7.47727 27.1347 6.68355 26.8903 6.1545 26.685C5.45452 26.4131 4.95454 26.0881 4.42955 25.5631C3.90457 25.0381 3.57958 24.5394 3.30709 23.8391C3.10178 23.3109 2.8571 22.5172 2.79054 21.0547C2.71867 19.4734 2.70429 18.9984 2.70429 14.9928C2.70429 10.9872 2.71867 10.5147 2.79054 8.93344C2.85741 7.47094 3.10178 6.67719 3.30709 6.14844C3.57895 5.44844 3.90457 4.94844 4.42955 4.42344C4.95454 3.89844 5.45452 3.57344 6.1545 3.30094C6.68323 3.09469 7.47727 2.85094 8.93973 2.78375C10.3234 2.72125 10.8597 2.7025 13.6552 2.69938V2.70312ZM23.0074 5.19375C22.0137 5.19375 21.2075 5.99906 21.2075 6.99312C21.2075 7.98687 22.0137 8.79313 23.0074 8.79313C24.0011 8.79313 24.8074 7.98687 24.8074 6.99312C24.8074 5.99937 24.0011 5.19312 23.0074 5.19312V5.19375ZM15.0008 7.29687C10.7469 7.29687 7.2979 10.7459 7.2979 15C7.2979 19.2541 10.7469 22.7016 15.0008 22.7016C19.2547 22.7016 22.7024 19.2541 22.7024 15C22.7024 10.7459 19.2544 7.29687 15.0005 7.29687H15.0008ZM15.0008 10C17.762 10 20.0006 12.2384 20.0006 15C20.0006 17.7612 17.762 20 15.0008 20C12.2393 20 10.0009 17.7612 10.0009 15C10.0009 12.2384 12.2393 10 15.0008 10Z" fill="white"/>
</svg>
