<svg width="30" height="30" viewBox="0 0 30 30" fill="none" xmlns="http://www.w3.org/2000/svg">
<path d="M8.23907 25.2416L8.69032 25.5093C10.5855 26.6353 12.7582 27.2307 14.9742 27.2319H14.9789C21.7838 27.2319 27.3221 21.6889 27.3248 14.8759C27.3261 11.5744 26.0431 8.46985 23.7121 6.13452C21.381 3.79919 18.2815 2.51246 14.9836 2.51107C8.17341 2.51107 2.63517 8.05347 2.63266 14.8659C2.63155 17.2004 3.28422 19.4742 4.52001 21.4416L4.8138 21.9089L3.56632 26.4682L8.23907 25.2416ZM0 30L2.10741 22.2969C0.807632 20.0426 0.123802 17.485 0.124636 14.8651C0.127977 6.66843 6.79101 0 14.9789 0C18.9522 0.00194024 22.6816 1.54992 25.4865 4.35984C28.2905 7.16975 29.8345 10.9046 29.8331 14.877C29.8295 23.0731 23.1654 29.7427 14.9789 29.7427C14.9783 29.7427 14.9795 29.7427 14.9789 29.7427H14.9725C12.4867 29.7416 10.0441 29.1174 7.87435 27.9329L0 30Z" fill="white"/>
<path fill-rule="evenodd" clip-rule="evenodd" d="M11.2665 8.65061C10.9883 8.03204 10.6956 8.0195 10.4313 8.00864C10.2149 7.99945 9.96728 8.00001 9.71995 8.00001C9.47235 8.00001 9.07034 8.09303 8.73037 8.46484C8.39013 8.83666 7.43115 9.73542 7.43115 11.5636C7.43115 13.3917 8.76125 15.1581 8.94654 15.4062C9.1321 15.6541 11.5141 19.5254 15.2869 21.0146C18.422 22.2523 19.0599 22.0061 19.7407 21.9443C20.4211 21.8825 21.9365 21.0455 22.2456 20.178C22.555 19.3104 22.555 18.5671 22.4623 18.4116C22.3694 18.2565 22.1221 18.1638 21.7507 17.978C21.3796 17.7922 19.5548 16.8932 19.2146 16.7693C18.8743 16.6453 18.627 16.5835 18.3794 16.9553C18.1321 17.3271 17.4213 18.1638 17.2045 18.4116C16.9881 18.6598 16.7716 18.6907 16.4002 18.5049C16.0291 18.3186 14.8337 17.9268 13.4156 16.6609C12.3123 15.6761 11.5675 14.4598 11.3508 14.088C11.1344 13.7162 11.3277 13.5151 11.5138 13.3299C11.6805 13.1634 11.885 12.896 12.0708 12.679C12.2558 12.4621 12.3178 12.3072 12.4414 12.0596C12.5652 11.8115 12.5034 11.5945 12.4105 11.4087C12.3178 11.223 11.5965 9.38533 11.2665 8.65061Z" fill="white"/>
</svg>
