<svg id="Layer_1" data-name="Layer 1" xmlns="http://www.w3.org/2000/svg" viewBox="0 0 1080 1080"><defs><style>.cls-1{fill:#fff;}</style></defs><rect class="cls-1" width="1080" height="1080"/><path d="M683.26,631.33l-.52-83.24L650.55,602.3a25.72,25.72,0,0,1-22.12,12.59h0a22.43,22.43,0,0,1-19.08-10.62L576.27,551v80.37h0a56.1,56.1,0,0,1-56.1-56.1V448.67h50.62L630.29,546l57.93-97.33h50.62l.36,126.56a55.94,55.94,0,0,1-55.94,56.1Z" transform="translate(-420)"/><path d="M947.13,540c0,56.1-43,95.51-101.77,95.51-35.75,0-63.93-13-81.93-36.54l1.7-1.51c17.38-15.52,41.53-20.3,63.87-13.66a46.18,46.18,0,0,0,13.23,1.87c25.57,0,42.8-17.75,42.8-45.67s-17.23-45.67-42.8-45.67A46.18,46.18,0,0,0,829,496.2c-22.34,6.64-46.49,1.86-63.87-13.66l-1.7-1.51c18-23.49,46.18-36.54,81.93-36.54C904.08,444.49,947.13,483.9,947.13,540Z" transform="translate(-420)"/><path d="M1043.63,580.13c0,16.32-12.52,27.79-29.6,27.79-10.4,0-18.6-3.8-23.84-10.63l.49-.44a19.46,19.46,0,0,1,18.58-4,13.42,13.42,0,0,0,3.85.55c7.44,0,12.45-5.17,12.45-13.29s-5-13.28-12.45-13.28a13.42,13.42,0,0,0-3.85.54,19.48,19.48,0,0,1-18.58-4l-.49-.44c5.24-6.84,13.44-10.63,23.84-10.63C1031.11,552.35,1043.63,563.81,1043.63,580.13Z" transform="translate(-420)"/><path d="M1038.43,525.52l-.15-28.32-13.74,23.05h-6.72L1004.16,498v27.56h-14V472.08h12.44l18.78,30.84,18.32-30.84h12.44l.15,53.44Z" transform="translate(-420)"/><path d="M1063,472.08h15.11v53.44H1063Z" transform="translate(-420)"/><path d="M1139.71,472.08v53.44h-12.44L1103.68,497v28.48h-14.81V472.08h12.45l23.58,28.48V472.08Z" transform="translate(-420)"/><path d="M1193.29,513.84v11.68h-42.9V472.08h41.91v11.68h-27v9h23.74v11.3h-23.74v9.77Z" transform="translate(-420)"/><path d="M1073.7,592.65h-8.24v14.2h-15.12V553.42h24.43c14.58,0,23.74,7.55,23.74,19.77,0,7.86-3.82,13.66-10.46,16.86l11.52,16.8h-16.18Zm.15-27.33h-8.39V581h8.39c6.26,0,9.39-2.9,9.39-7.78S1080.11,565.32,1073.85,565.32Z" transform="translate(-420)"/><path d="M1149.72,595.17v11.68h-42.9V553.42h41.91v11.67h-27v9h23.74v11.3h-23.74v9.77Z" transform="translate(-420)"/><path d="M1193.91,596.47h-22.6l-4.19,10.38H1151.7l23.58-53.43h14.89l23.66,53.43h-15.72Zm-4.43-11.15-6.87-17.1-6.87,17.1Z" transform="translate(-420)"/><path d="M1226.8,565.4h-16.41v-12h47.86v12h-16.33v41.45H1226.8Z" transform="translate(-420)"/><path d="M1263.89,553.42H1279v53.43h-15.12Z" transform="translate(-420)"/><path d="M1343.81,553.42l-22.9,53.43H1306l-22.83-53.43h16.34l14.5,34.8,14.81-34.8Z" transform="translate(-420)"/><path d="M1389.83,595.17v11.68h-42.9V553.42h41.91v11.67h-26.95v9h23.74v11.3h-23.74v9.77Z" transform="translate(-420)"/></svg>