<svg id="Layer_1" data-name="Layer 1" xmlns="http://www.w3.org/2000/svg" viewBox="0 0 1109.63 97.95"><defs><style>.cls-1{fill:#fffbfe;}</style></defs><path class="cls-1" d="M904.58,540c0,28.77-22.08,49-52.19,49-18.33,0-32.78-6.69-42-18.73l.87-.78a34.3,34.3,0,0,1,32.75-7,23.71,23.71,0,0,0,6.79,1c13.11,0,21.94-9.1,21.94-23.42s-8.83-23.42-21.94-23.42a23.71,23.71,0,0,0-6.79,1,34.3,34.3,0,0,1-32.75-7l-.87-.78c9.23-12,23.68-18.73,42-18.73C882.5,491,904.58,511.23,904.58,540Z" transform="translate(-405.19 -491.03)"/><polygon class="cls-1" points="422.18 48.97 405.19 39.16 405.19 58.78 422.18 48.97"/><path class="cls-1" d="M490.22,587.09,490,537.18l-24.22,40.63H453.89l-24.08-39.29v48.57H405.19V492.91h21.93l33.09,54.36,32.29-54.36h21.94l.26,94.18Z" transform="translate(-405.19 -491.03)"/><path class="cls-1" d="M533.53,492.91h26.64v94.18H533.53Z" transform="translate(-405.19 -491.03)"/><path class="cls-1" d="M668.74,492.91v94.18H646.81l-41.57-50.18v50.18H579.13V492.91h21.93l41.58,50.18V492.91Z" transform="translate(-405.19 -491.03)"/><path class="cls-1" d="M763.18,566.51v20.58H687.57V492.91h73.86v20.58H713.94v15.88h41.84v19.91H713.94v17.23Z" transform="translate(-405.19 -491.03)"/><path class="cls-1" d="M957.58,562.06H943.05v25H916.4V492.91h43.06c25.7,0,41.84,13.32,41.84,34.85,0,13.85-6.72,24.08-18.43,29.73l20.32,29.6H974.66Zm.27-48.16h-14.8v27.58h14.8c11,0,16.55-5.11,16.55-13.72S968.88,513.9,957.85,513.9Z" transform="translate(-405.19 -491.03)"/><path class="cls-1" d="M1091.57,566.51v20.58H1016V492.91h73.87v20.58h-47.5v15.88h41.84v19.91h-41.84v17.23Z" transform="translate(-405.19 -491.03)"/><path class="cls-1" d="M1169.47,568.79h-39.83l-7.4,18.3h-27.18l41.58-94.18h26.24l41.7,94.18h-27.71Zm-7.81-19.64L1149.55,519l-12.1,30.14Z" transform="translate(-405.19 -491.03)"/><path class="cls-1" d="M1227.45,514h-28.93V492.91h84.36V514h-28.79v73.06h-26.64Z" transform="translate(-405.19 -491.03)"/><path class="cls-1" d="M1292.83,492.91h26.64v94.18h-26.64Z" transform="translate(-405.19 -491.03)"/><path class="cls-1" d="M1433.69,492.91l-40.36,94.18h-26.24l-40.22-94.18h28.79l25.56,61.35,26.1-61.35Z" transform="translate(-405.19 -491.03)"/><path class="cls-1" d="M1514.81,566.51v20.58H1439.2V492.91h73.87v20.58h-47.5v15.88h41.84v19.91h-41.84v17.23Z" transform="translate(-405.19 -491.03)"/></svg>