<?xml version="1.0" standalone="no"?><svg xmlns="http://www.w3.org/2000/svg" viewBox="0 0 1440 320"><path fill="#3a3a3a" fill-opacity="1" d="M0,32L18.5,42.7C36.9,53,74,75,111,117.3C147.7,160,185,224,222,229.3C258.5,235,295,181,332,149.3C369.2,117,406,107,443,96C480,85,517,75,554,106.7C590.8,139,628,213,665,218.7C701.5,224,738,160,775,154.7C812.3,149,849,203,886,234.7C923.1,267,960,277,997,256C1033.8,235,1071,181,1108,144C1144.6,107,1182,85,1218,96C1255.4,107,1292,149,1329,149.3C1366.2,149,1403,107,1422,85.3L1440,64L1440,320L1421.5,320C1403.1,320,1366,320,1329,320C1292.3,320,1255,320,1218,320C1181.5,320,1145,320,1108,320C1070.8,320,1034,320,997,320C960,320,923,320,886,320C849.2,320,812,320,775,320C738.5,320,702,320,665,320C627.7,320,591,320,554,320C516.9,320,480,320,443,320C406.2,320,369,320,332,320C295.4,320,258,320,222,320C184.6,320,148,320,111,320C73.8,320,37,320,18,320L0,320Z"></path></svg>